<?xml version="1.0" encoding="utf-8"?>
<!-- Generator: Adobe Illustrator 25.2.0, SVG Export Plug-In . SVG Version: 6.00 Build 0)  -->
<svg version="1.1" xmlns="http://www.w3.org/2000/svg" xmlns:xlink="http://www.w3.org/1999/xlink" x="0px" y="0px"
	 viewBox="0 0 612 792" style="enable-background:new 0 0 612 792;" xml:space="preserve">
<style type="text/css">
	.st0{fill:#37B34A;}
	.st1{fill:none;stroke:#37B34A;stroke-width:2;stroke-miterlimit:10;}
	.st2{opacity:0.5;}
	.st3{stroke:#000000;stroke-width:2;stroke-miterlimit:10;}
	.st4{fill:#FFFFFF;stroke:#FFFFFF;stroke-width:2;stroke-miterlimit:10;}
	.st5{display:none;}
	.st6{display:inline;opacity:0.8;fill:url(#SVGID_1_);}
	.st7{display:inline;opacity:0.8;fill:url(#SVGID_2_);}
	.st8{display:inline;opacity:0.8;fill:url(#SVGID_3_);}
	.st9{display:inline;opacity:0.8;fill:url(#SVGID_4_);}
	.st10{display:inline;opacity:0.8;fill:url(#SVGID_5_);}
	.st11{display:inline;opacity:0.8;fill:url(#SVGID_6_);}
	.st12{display:inline;opacity:0.8;fill:url(#SVGID_7_);}
	.st13{display:inline;opacity:0.8;fill:url(#SVGID_8_);}
	.st14{display:inline;opacity:0.8;fill:url(#SVGID_9_);}
	.st15{display:inline;opacity:0.8;fill:url(#SVGID_10_);}
	.st16{display:inline;opacity:0.8;fill:url(#SVGID_11_);}
	.st17{display:inline;opacity:0.8;fill:url(#SVGID_12_);}
	.st18{display:inline;opacity:0.8;fill:url(#SVGID_13_);}
	.st19{display:inline;opacity:0.8;fill:url(#SVGID_14_);}
	.st20{display:inline;opacity:0.8;fill:url(#SVGID_15_);}
	.st21{display:inline;opacity:0.8;fill:url(#SVGID_16_);}
	.st22{display:inline;opacity:0.8;fill:url(#SVGID_17_);}
	.st23{display:inline;opacity:0.8;fill:url(#SVGID_18_);}
	.st24{display:inline;opacity:0.8;fill:url(#SVGID_19_);}
	.st25{display:inline;opacity:0.8;fill:url(#SVGID_20_);}
</style>
<g id="Outline">
	<rect x="98.26" y="247.08" width="444.1" height="266.46"/>
</g>
<g id="Fills">
	<g>
		<path class="st0" d="M518.74,353.18c0,2.34-1.91,4.25-4.25,4.25H466.3c-2.34,0-4.25-1.91-4.25-4.25v-34.02
			c0-2.34,1.91-4.25,4.25-4.25h48.19c2.34,0,4.25,1.91,4.25,4.25V353.18z"/>
		<path class="st1" d="M518.74,353.18c0,2.34-1.91,4.25-4.25,4.25H466.3c-2.34,0-4.25-1.91-4.25-4.25v-34.02
			c0-2.34,1.91-4.25,4.25-4.25h48.19c2.34,0,4.25,1.91,4.25,4.25V353.18z"/>
	</g>
	<g>
		<path class="st0" d="M518.74,401.37c0,2.34-1.91,4.25-4.25,4.25H466.3c-2.34,0-4.25-1.91-4.25-4.25v-34.02
			c0-2.34,1.91-4.25,4.25-4.25h48.19c2.34,0,4.25,1.91,4.25,4.25V401.37z"/>
		<path class="st1" d="M518.74,401.37c0,2.34-1.91,4.25-4.25,4.25H466.3c-2.34,0-4.25-1.91-4.25-4.25v-34.02
			c0-2.34,1.91-4.25,4.25-4.25h48.19c2.34,0,4.25,1.91,4.25,4.25V401.37z"/>
	</g>
	<g>
		<path class="st0" d="M518.74,449.56c0,2.34-1.91,4.25-4.25,4.25H466.3c-2.34,0-4.25-1.91-4.25-4.25v-34.02
			c0-2.34,1.91-4.25,4.25-4.25h48.19c2.34,0,4.25,1.91,4.25,4.25V449.56z"/>
		<path class="st1" d="M518.74,449.56c0,2.34-1.91,4.25-4.25,4.25H466.3c-2.34,0-4.25-1.91-4.25-4.25v-34.02
			c0-2.34,1.91-4.25,4.25-4.25h48.19c2.34,0,4.25,1.91,4.25,4.25V449.56z"/>
	</g>
	<g>
		<path class="st0" d="M518.74,497.75c0,2.34-1.91,4.25-4.25,4.25H466.3c-2.34,0-4.25-1.91-4.25-4.25v-34.02
			c0-2.34,1.91-4.25,4.25-4.25h48.19c2.34,0,4.25,1.91,4.25,4.25V497.75z"/>
		<path class="st1" d="M518.74,497.75c0,2.34-1.91,4.25-4.25,4.25H466.3c-2.34,0-4.25-1.91-4.25-4.25v-34.02
			c0-2.34,1.91-4.25,4.25-4.25h48.19c2.34,0,4.25,1.91,4.25,4.25V497.75z"/>
	</g>
</g>
<g id="Text__x26__Arrows">
	<g>
		<path class="st0" d="M162.99,353.18c0,2.34-1.91,4.25-4.25,4.25h-34.02c-2.34,0-4.25-1.91-4.25-4.25v-34.02
			c0-2.34,1.91-4.25,4.25-4.25h34.02c2.34,0,4.25,1.91,4.25,4.25V353.18z"/>
		<path class="st1" d="M162.99,353.18c0,2.34-1.91,4.25-4.25,4.25h-34.02c-2.34,0-4.25-1.91-4.25-4.25v-34.02
			c0-2.34,1.91-4.25,4.25-4.25h34.02c2.34,0,4.25,1.91,4.25,4.25V353.18z"/>
	</g>
	<g>
		<path class="st0" d="M211.18,353.18c0,2.34-1.91,4.25-4.25,4.25h-34.02c-2.34,0-4.25-1.91-4.25-4.25v-34.02
			c0-2.34,1.91-4.25,4.25-4.25h34.02c2.34,0,4.25,1.91,4.25,4.25V353.18z"/>
		<path class="st1" d="M211.18,353.18c0,2.34-1.91,4.25-4.25,4.25h-34.02c-2.34,0-4.25-1.91-4.25-4.25v-34.02
			c0-2.34,1.91-4.25,4.25-4.25h34.02c2.34,0,4.25,1.91,4.25,4.25V353.18z"/>
	</g>
	<g>
		<path class="st0" d="M259.37,353.18c0,2.34-1.91,4.25-4.25,4.25H221.1c-2.34,0-4.25-1.91-4.25-4.25v-34.02
			c0-2.34,1.91-4.25,4.25-4.25h34.02c2.34,0,4.25,1.91,4.25,4.25V353.18z"/>
		<path class="st1" d="M259.37,353.18c0,2.34-1.91,4.25-4.25,4.25H221.1c-2.34,0-4.25-1.91-4.25-4.25v-34.02
			c0-2.34,1.91-4.25,4.25-4.25h34.02c2.34,0,4.25,1.91,4.25,4.25V353.18z"/>
	</g>
	<g>
		<path class="st0" d="M307.56,353.18c0,2.34-1.91,4.25-4.25,4.25h-34.02c-2.34,0-4.25-1.91-4.25-4.25v-34.02
			c0-2.34,1.91-4.25,4.25-4.25h34.02c2.34,0,4.25,1.91,4.25,4.25V353.18z"/>
		<path class="st1" d="M307.56,353.18c0,2.34-1.91,4.25-4.25,4.25h-34.02c-2.34,0-4.25-1.91-4.25-4.25v-34.02
			c0-2.34,1.91-4.25,4.25-4.25h34.02c2.34,0,4.25,1.91,4.25,4.25V353.18z"/>
	</g>
	<g>
		<path class="st0" d="M355.75,353.18c0,2.34-1.91,4.25-4.25,4.25h-34.02c-2.34,0-4.25-1.91-4.25-4.25v-34.02
			c0-2.34,1.91-4.25,4.25-4.25h34.02c2.34,0,4.25,1.91,4.25,4.25V353.18z"/>
		<path class="st1" d="M355.75,353.18c0,2.34-1.91,4.25-4.25,4.25h-34.02c-2.34,0-4.25-1.91-4.25-4.25v-34.02
			c0-2.34,1.91-4.25,4.25-4.25h34.02c2.34,0,4.25,1.91,4.25,4.25V353.18z"/>
	</g>
	<g>
		<path class="st0" d="M403.94,353.18c0,2.34-1.91,4.25-4.25,4.25h-34.02c-2.34,0-4.25-1.91-4.25-4.25v-34.02
			c0-2.34,1.91-4.25,4.25-4.25h34.02c2.34,0,4.25,1.91,4.25,4.25V353.18z"/>
		<path class="st1" d="M403.94,353.18c0,2.34-1.91,4.25-4.25,4.25h-34.02c-2.34,0-4.25-1.91-4.25-4.25v-34.02
			c0-2.34,1.91-4.25,4.25-4.25h34.02c2.34,0,4.25,1.91,4.25,4.25V353.18z"/>
	</g>
	<g>
		<path class="st0" d="M452.13,353.18c0,2.34-1.91,4.25-4.25,4.25h-34.02c-2.34,0-4.25-1.91-4.25-4.25v-34.02
			c0-2.34,1.91-4.25,4.25-4.25h34.02c2.34,0,4.25,1.91,4.25,4.25V353.18z"/>
		<path class="st1" d="M452.13,353.18c0,2.34-1.91,4.25-4.25,4.25h-34.02c-2.34,0-4.25-1.91-4.25-4.25v-34.02
			c0-2.34,1.91-4.25,4.25-4.25h34.02c2.34,0,4.25,1.91,4.25,4.25V353.18z"/>
	</g>
	<g>
		<path class="st0" d="M162.99,401.37c0,2.34-1.91,4.25-4.25,4.25h-34.02c-2.34,0-4.25-1.91-4.25-4.25v-34.02
			c0-2.34,1.91-4.25,4.25-4.25h34.02c2.34,0,4.25,1.91,4.25,4.25V401.37z"/>
		<path class="st1" d="M162.99,401.37c0,2.34-1.91,4.25-4.25,4.25h-34.02c-2.34,0-4.25-1.91-4.25-4.25v-34.02
			c0-2.34,1.91-4.25,4.25-4.25h34.02c2.34,0,4.25,1.91,4.25,4.25V401.37z"/>
	</g>
	<g>
		<path class="st0" d="M211.18,401.37c0,2.34-1.91,4.25-4.25,4.25h-34.02c-2.34,0-4.25-1.91-4.25-4.25v-34.02
			c0-2.34,1.91-4.25,4.25-4.25h34.02c2.34,0,4.25,1.91,4.25,4.25V401.37z"/>
		<path class="st1" d="M211.18,401.37c0,2.34-1.91,4.25-4.25,4.25h-34.02c-2.34,0-4.25-1.91-4.25-4.25v-34.02
			c0-2.34,1.91-4.25,4.25-4.25h34.02c2.34,0,4.25,1.91,4.25,4.25V401.37z"/>
	</g>
	<g>
		<path class="st0" d="M259.37,401.37c0,2.34-1.91,4.25-4.25,4.25H221.1c-2.34,0-4.25-1.91-4.25-4.25v-34.02
			c0-2.34,1.91-4.25,4.25-4.25h34.02c2.34,0,4.25,1.91,4.25,4.25V401.37z"/>
		<path class="st1" d="M259.37,401.37c0,2.34-1.91,4.25-4.25,4.25H221.1c-2.34,0-4.25-1.91-4.25-4.25v-34.02
			c0-2.34,1.91-4.25,4.25-4.25h34.02c2.34,0,4.25,1.91,4.25,4.25V401.37z"/>
	</g>
	<g>
		<path class="st0" d="M307.56,401.37c0,2.34-1.91,4.25-4.25,4.25h-34.02c-2.34,0-4.25-1.91-4.25-4.25v-34.02
			c0-2.34,1.91-4.25,4.25-4.25h34.02c2.34,0,4.25,1.91,4.25,4.25V401.37z"/>
		<path class="st1" d="M307.56,401.37c0,2.34-1.91,4.25-4.25,4.25h-34.02c-2.34,0-4.25-1.91-4.25-4.25v-34.02
			c0-2.34,1.91-4.25,4.25-4.25h34.02c2.34,0,4.25,1.91,4.25,4.25V401.37z"/>
	</g>
	<g>
		<path class="st0" d="M355.75,401.37c0,2.34-1.91,4.25-4.25,4.25h-34.02c-2.34,0-4.25-1.91-4.25-4.25v-34.02
			c0-2.34,1.91-4.25,4.25-4.25h34.02c2.34,0,4.25,1.91,4.25,4.25V401.37z"/>
		<path class="st1" d="M355.75,401.37c0,2.34-1.91,4.25-4.25,4.25h-34.02c-2.34,0-4.25-1.91-4.25-4.25v-34.02
			c0-2.34,1.91-4.25,4.25-4.25h34.02c2.34,0,4.25,1.91,4.25,4.25V401.37z"/>
	</g>
	<g>
		<path class="st0" d="M403.94,401.37c0,2.34-1.91,4.25-4.25,4.25h-34.02c-2.34,0-4.25-1.91-4.25-4.25v-34.02
			c0-2.34,1.91-4.25,4.25-4.25h34.02c2.34,0,4.25,1.91,4.25,4.25V401.37z"/>
		<path class="st1" d="M403.94,401.37c0,2.34-1.91,4.25-4.25,4.25h-34.02c-2.34,0-4.25-1.91-4.25-4.25v-34.02
			c0-2.34,1.91-4.25,4.25-4.25h34.02c2.34,0,4.25,1.91,4.25,4.25V401.37z"/>
	</g>
	<g>
		<path class="st0" d="M452.13,401.37c0,2.34-1.91,4.25-4.25,4.25h-34.02c-2.34,0-4.25-1.91-4.25-4.25v-34.02
			c0-2.34,1.91-4.25,4.25-4.25h34.02c2.34,0,4.25,1.91,4.25,4.25V401.37z"/>
		<path class="st1" d="M452.13,401.37c0,2.34-1.91,4.25-4.25,4.25h-34.02c-2.34,0-4.25-1.91-4.25-4.25v-34.02
			c0-2.34,1.91-4.25,4.25-4.25h34.02c2.34,0,4.25,1.91,4.25,4.25V401.37z"/>
	</g>
	<g>
		<path class="st0" d="M162.99,449.56c0,2.34-1.91,4.25-4.25,4.25h-34.02c-2.34,0-4.25-1.91-4.25-4.25v-34.02
			c0-2.34,1.91-4.25,4.25-4.25h34.02c2.34,0,4.25,1.91,4.25,4.25V449.56z"/>
		<path class="st1" d="M162.99,449.56c0,2.34-1.91,4.25-4.25,4.25h-34.02c-2.34,0-4.25-1.91-4.25-4.25v-34.02
			c0-2.34,1.91-4.25,4.25-4.25h34.02c2.34,0,4.25,1.91,4.25,4.25V449.56z"/>
	</g>
	<g>
		<path class="st0" d="M211.18,449.56c0,2.34-1.91,4.25-4.25,4.25h-34.02c-2.34,0-4.25-1.91-4.25-4.25v-34.02
			c0-2.34,1.91-4.25,4.25-4.25h34.02c2.34,0,4.25,1.91,4.25,4.25V449.56z"/>
		<path class="st1" d="M211.18,449.56c0,2.34-1.91,4.25-4.25,4.25h-34.02c-2.34,0-4.25-1.91-4.25-4.25v-34.02
			c0-2.34,1.91-4.25,4.25-4.25h34.02c2.34,0,4.25,1.91,4.25,4.25V449.56z"/>
	</g>
	<g>
		<path class="st0" d="M259.37,449.56c0,2.34-1.91,4.25-4.25,4.25H221.1c-2.34,0-4.25-1.91-4.25-4.25v-34.02
			c0-2.34,1.91-4.25,4.25-4.25h34.02c2.34,0,4.25,1.91,4.25,4.25V449.56z"/>
		<path class="st1" d="M259.37,449.56c0,2.34-1.91,4.25-4.25,4.25H221.1c-2.34,0-4.25-1.91-4.25-4.25v-34.02
			c0-2.34,1.91-4.25,4.25-4.25h34.02c2.34,0,4.25,1.91,4.25,4.25V449.56z"/>
	</g>
	<g>
		<path class="st0" d="M307.56,449.56c0,2.34-1.91,4.25-4.25,4.25h-34.02c-2.34,0-4.25-1.91-4.25-4.25v-34.02
			c0-2.34,1.91-4.25,4.25-4.25h34.02c2.34,0,4.25,1.91,4.25,4.25V449.56z"/>
		<path class="st1" d="M307.56,449.56c0,2.34-1.91,4.25-4.25,4.25h-34.02c-2.34,0-4.25-1.91-4.25-4.25v-34.02
			c0-2.34,1.91-4.25,4.25-4.25h34.02c2.34,0,4.25,1.91,4.25,4.25V449.56z"/>
	</g>
	<g>
		<path class="st0" d="M355.75,449.56c0,2.34-1.91,4.25-4.25,4.25h-34.02c-2.34,0-4.25-1.91-4.25-4.25v-34.02
			c0-2.34,1.91-4.25,4.25-4.25h34.02c2.34,0,4.25,1.91,4.25,4.25V449.56z"/>
		<path class="st1" d="M355.75,449.56c0,2.34-1.91,4.25-4.25,4.25h-34.02c-2.34,0-4.25-1.91-4.25-4.25v-34.02
			c0-2.34,1.91-4.25,4.25-4.25h34.02c2.34,0,4.25,1.91,4.25,4.25V449.56z"/>
	</g>
	<g>
		<path class="st0" d="M403.94,449.56c0,2.34-1.91,4.25-4.25,4.25h-34.02c-2.34,0-4.25-1.91-4.25-4.25v-34.02
			c0-2.34,1.91-4.25,4.25-4.25h34.02c2.34,0,4.25,1.91,4.25,4.25V449.56z"/>
		<path class="st1" d="M403.94,449.56c0,2.34-1.91,4.25-4.25,4.25h-34.02c-2.34,0-4.25-1.91-4.25-4.25v-34.02
			c0-2.34,1.91-4.25,4.25-4.25h34.02c2.34,0,4.25,1.91,4.25,4.25V449.56z"/>
	</g>
	<g>
		<path class="st0" d="M452.13,449.56c0,2.34-1.91,4.25-4.25,4.25h-34.02c-2.34,0-4.25-1.91-4.25-4.25v-34.02
			c0-2.34,1.91-4.25,4.25-4.25h34.02c2.34,0,4.25,1.91,4.25,4.25V449.56z"/>
		<path class="st1" d="M452.13,449.56c0,2.34-1.91,4.25-4.25,4.25h-34.02c-2.34,0-4.25-1.91-4.25-4.25v-34.02
			c0-2.34,1.91-4.25,4.25-4.25h34.02c2.34,0,4.25,1.91,4.25,4.25V449.56z"/>
	</g>
	<g>
		<path class="st0" d="M162.99,497.75c0,2.34-1.91,4.25-4.25,4.25h-34.02c-2.34,0-4.25-1.91-4.25-4.25v-34.02
			c0-2.34,1.91-4.25,4.25-4.25h34.02c2.34,0,4.25,1.91,4.25,4.25V497.75z"/>
		<path class="st1" d="M162.99,497.75c0,2.34-1.91,4.25-4.25,4.25h-34.02c-2.34,0-4.25-1.91-4.25-4.25v-34.02
			c0-2.34,1.91-4.25,4.25-4.25h34.02c2.34,0,4.25,1.91,4.25,4.25V497.75z"/>
	</g>
	<g>
		<path class="st0" d="M211.18,497.75c0,2.34-1.91,4.25-4.25,4.25h-34.02c-2.34,0-4.25-1.91-4.25-4.25v-34.02
			c0-2.34,1.91-4.25,4.25-4.25h34.02c2.34,0,4.25,1.91,4.25,4.25V497.75z"/>
		<path class="st1" d="M211.18,497.75c0,2.34-1.91,4.25-4.25,4.25h-34.02c-2.34,0-4.25-1.91-4.25-4.25v-34.02
			c0-2.34,1.91-4.25,4.25-4.25h34.02c2.34,0,4.25,1.91,4.25,4.25V497.75z"/>
	</g>
	<g>
		<path class="st0" d="M259.37,497.75c0,2.34-1.91,4.25-4.25,4.25H221.1c-2.34,0-4.25-1.91-4.25-4.25v-34.02
			c0-2.34,1.91-4.25,4.25-4.25h34.02c2.34,0,4.25,1.91,4.25,4.25V497.75z"/>
		<path class="st1" d="M259.37,497.75c0,2.34-1.91,4.25-4.25,4.25H221.1c-2.34,0-4.25-1.91-4.25-4.25v-34.02
			c0-2.34,1.91-4.25,4.25-4.25h34.02c2.34,0,4.25,1.91,4.25,4.25V497.75z"/>
	</g>
	<g>
		<path class="st0" d="M307.56,497.75c0,2.34-1.91,4.25-4.25,4.25h-34.02c-2.34,0-4.25-1.91-4.25-4.25v-34.02
			c0-2.34,1.91-4.25,4.25-4.25h34.02c2.34,0,4.25,1.91,4.25,4.25V497.75z"/>
		<path class="st1" d="M307.56,497.75c0,2.34-1.91,4.25-4.25,4.25h-34.02c-2.34,0-4.25-1.91-4.25-4.25v-34.02
			c0-2.34,1.91-4.25,4.25-4.25h34.02c2.34,0,4.25,1.91,4.25,4.25V497.75z"/>
	</g>
	<g>
		<path class="st0" d="M355.75,497.75c0,2.34-1.91,4.25-4.25,4.25h-34.02c-2.34,0-4.25-1.91-4.25-4.25v-34.02
			c0-2.34,1.91-4.25,4.25-4.25h34.02c2.34,0,4.25,1.91,4.25,4.25V497.75z"/>
		<path class="st1" d="M355.75,497.75c0,2.34-1.91,4.25-4.25,4.25h-34.02c-2.34,0-4.25-1.91-4.25-4.25v-34.02
			c0-2.34,1.91-4.25,4.25-4.25h34.02c2.34,0,4.25,1.91,4.25,4.25V497.75z"/>
	</g>
	<g>
		<path class="st0" d="M403.94,497.75c0,2.34-1.91,4.25-4.25,4.25h-34.02c-2.34,0-4.25-1.91-4.25-4.25v-34.02
			c0-2.34,1.91-4.25,4.25-4.25h34.02c2.34,0,4.25,1.91,4.25,4.25V497.75z"/>
		<path class="st1" d="M403.94,497.75c0,2.34-1.91,4.25-4.25,4.25h-34.02c-2.34,0-4.25-1.91-4.25-4.25v-34.02
			c0-2.34,1.91-4.25,4.25-4.25h34.02c2.34,0,4.25,1.91,4.25,4.25V497.75z"/>
	</g>
	<g>
		<path class="st0" d="M452.13,497.75c0,2.34-1.91,4.25-4.25,4.25h-34.02c-2.34,0-4.25-1.91-4.25-4.25v-34.02
			c0-2.34,1.91-4.25,4.25-4.25h34.02c2.34,0,4.25,1.91,4.25,4.25V497.75z"/>
		<path class="st1" d="M452.13,497.75c0,2.34-1.91,4.25-4.25,4.25h-34.02c-2.34,0-4.25-1.91-4.25-4.25v-34.02
			c0-2.34,1.91-4.25,4.25-4.25h34.02c2.34,0,4.25,1.91,4.25,4.25V497.75z"/>
	</g>
	<g>
		<g class="st2">
			<path class="st3" d="M499.47,343.61"/>
			<path class="st3" d="M489.54,332.27"/>
			<path class="st3" d="M499.47,332.27"/>
			<path class="st3" d="M489.54,343.61"/>
		</g>
		<g>
			<g>
				<path class="st4" d="M498.61,342.19"/>
				<path class="st4" d="M488.69,330.85"/>
				<path class="st4" d="M498.61,330.85"/>
				<path class="st4" d="M488.69,342.19"/>
			</g>
		</g>
	</g>
</g>
<g id="Highlights" class="st5">
	<linearGradient id="SVGID_1_" gradientUnits="userSpaceOnUse" x1="195.5922" y1="401.1086" x2="195.5922" y2="428.8285">
		<stop  offset="0" style="stop-color:#FFFFFF"/>
		<stop  offset="1" style="stop-color:#000000"/>
	</linearGradient>
	<path class="st6" d="M214.19,399.69h-37.2c-1.47,0-2.66,1.19-2.66,2.66v18.77c6.38,2.44,13.57,3.82,21.17,3.82
		c7.68,0,14.92-1.41,21.35-3.89v-18.7C216.85,400.88,215.66,399.69,214.19,399.69z"/>
	<linearGradient id="SVGID_2_" gradientUnits="userSpaceOnUse" x1="243.7812" y1="401.1086" x2="243.7812" y2="428.8285">
		<stop  offset="0" style="stop-color:#FFFFFF"/>
		<stop  offset="1" style="stop-color:#000000"/>
	</linearGradient>
	<path class="st7" d="M262.38,399.69h-37.2c-1.47,0-2.66,1.19-2.66,2.66v18.77c6.38,2.44,13.57,3.82,21.17,3.82
		c7.68,0,14.92-1.41,21.35-3.89v-18.7C265.04,400.88,263.85,399.69,262.38,399.69z"/>
	<linearGradient id="SVGID_3_" gradientUnits="userSpaceOnUse" x1="291.9701" y1="401.1086" x2="291.9701" y2="428.8285">
		<stop  offset="0" style="stop-color:#FFFFFF"/>
		<stop  offset="1" style="stop-color:#000000"/>
	</linearGradient>
	<path class="st8" d="M310.57,399.69h-37.2c-1.47,0-2.66,1.19-2.66,2.66v18.77c6.38,2.44,13.57,3.82,21.17,3.82
		c7.68,0,14.92-1.41,21.35-3.89v-18.7C313.23,400.88,312.04,399.69,310.57,399.69z"/>
	<linearGradient id="SVGID_4_" gradientUnits="userSpaceOnUse" x1="195.5922" y1="449.2977" x2="195.5922" y2="477.0175">
		<stop  offset="0" style="stop-color:#FFFFFF"/>
		<stop  offset="1" style="stop-color:#000000"/>
	</linearGradient>
	<path class="st9" d="M214.19,447.88h-37.2c-1.47,0-2.66,1.19-2.66,2.66v18.77c6.38,2.44,13.57,3.82,21.17,3.82
		c7.68,0,14.92-1.41,21.35-3.89v-18.7C216.85,449.07,215.66,447.88,214.19,447.88z"/>
	<linearGradient id="SVGID_5_" gradientUnits="userSpaceOnUse" x1="243.7812" y1="449.2977" x2="243.7812" y2="477.0175">
		<stop  offset="0" style="stop-color:#FFFFFF"/>
		<stop  offset="1" style="stop-color:#000000"/>
	</linearGradient>
	<path class="st10" d="M262.38,447.88h-37.2c-1.47,0-2.66,1.19-2.66,2.66v18.77c6.38,2.44,13.57,3.82,21.17,3.82
		c7.68,0,14.92-1.41,21.35-3.89v-18.7C265.04,449.07,263.85,447.88,262.38,447.88z"/>
	<linearGradient id="SVGID_6_" gradientUnits="userSpaceOnUse" x1="291.9701" y1="449.2977" x2="291.9701" y2="477.0175">
		<stop  offset="0" style="stop-color:#FFFFFF"/>
		<stop  offset="1" style="stop-color:#000000"/>
	</linearGradient>
	<path class="st11" d="M310.57,447.88h-37.2c-1.47,0-2.66,1.19-2.66,2.66v18.77c6.38,2.44,13.57,3.82,21.17,3.82
		c7.68,0,14.92-1.41,21.35-3.89v-18.7C313.23,449.07,312.04,447.88,310.57,447.88z"/>
	<linearGradient id="SVGID_7_" gradientUnits="userSpaceOnUse" x1="195.5922" y1="497.4867" x2="195.5922" y2="525.2065">
		<stop  offset="0" style="stop-color:#FFFFFF"/>
		<stop  offset="1" style="stop-color:#000000"/>
	</linearGradient>
	<path class="st12" d="M214.19,496.06h-37.2c-1.47,0-2.66,1.19-2.66,2.66v18.77c6.38,2.44,13.57,3.82,21.17,3.82
		c7.68,0,14.92-1.41,21.35-3.89v-18.7C216.85,497.25,215.66,496.06,214.19,496.06z"/>
	<linearGradient id="SVGID_8_" gradientUnits="userSpaceOnUse" x1="243.7812" y1="497.4867" x2="243.7812" y2="525.2065">
		<stop  offset="0" style="stop-color:#FFFFFF"/>
		<stop  offset="1" style="stop-color:#000000"/>
	</linearGradient>
	<path class="st13" d="M262.38,496.06h-37.2c-1.47,0-2.66,1.19-2.66,2.66v18.77c6.38,2.44,13.57,3.82,21.17,3.82
		c7.68,0,14.92-1.41,21.35-3.89v-18.7C265.04,497.25,263.85,496.06,262.38,496.06z"/>
	<linearGradient id="SVGID_9_" gradientUnits="userSpaceOnUse" x1="291.9701" y1="497.4867" x2="291.9701" y2="525.2065">
		<stop  offset="0" style="stop-color:#FFFFFF"/>
		<stop  offset="1" style="stop-color:#000000"/>
	</linearGradient>
	<path class="st14" d="M310.57,496.06h-37.2c-1.47,0-2.66,1.19-2.66,2.66v18.77c6.38,2.44,13.57,3.82,21.17,3.82
		c7.68,0,14.92-1.41,21.35-3.89v-18.7C313.23,497.25,312.04,496.06,310.57,496.06z"/>
	<linearGradient id="SVGID_10_" gradientUnits="userSpaceOnUse" x1="195.5922" y1="545.6755" x2="195.5922" y2="573.3954">
		<stop  offset="0" style="stop-color:#FFFFFF"/>
		<stop  offset="1" style="stop-color:#000000"/>
	</linearGradient>
	<path class="st15" d="M214.19,544.25h-37.2c-1.47,0-2.66,1.19-2.66,2.66v18.77c6.38,2.44,13.57,3.82,21.17,3.82
		c7.68,0,14.92-1.41,21.35-3.89v-18.7C216.85,545.44,215.66,544.25,214.19,544.25z"/>
	<linearGradient id="SVGID_11_" gradientUnits="userSpaceOnUse" x1="243.7812" y1="545.6755" x2="243.7812" y2="573.3954">
		<stop  offset="0" style="stop-color:#FFFFFF"/>
		<stop  offset="1" style="stop-color:#000000"/>
	</linearGradient>
	<path class="st16" d="M262.38,544.25h-37.2c-1.47,0-2.66,1.19-2.66,2.66v18.77c6.38,2.44,13.57,3.82,21.17,3.82
		c7.68,0,14.92-1.41,21.35-3.89v-18.7C265.04,545.44,263.85,544.25,262.38,544.25z"/>
	<linearGradient id="SVGID_12_" gradientUnits="userSpaceOnUse" x1="291.9701" y1="545.6755" x2="291.9701" y2="573.3954">
		<stop  offset="0" style="stop-color:#FFFFFF"/>
		<stop  offset="1" style="stop-color:#000000"/>
	</linearGradient>
	<path class="st17" d="M310.57,544.25h-37.2c-1.47,0-2.66,1.19-2.66,2.66v18.77c6.38,2.44,13.57,3.82,21.17,3.82
		c7.68,0,14.92-1.41,21.35-3.89v-18.7C313.23,545.44,312.04,544.25,310.57,544.25z"/>
	<linearGradient id="SVGID_13_" gradientUnits="userSpaceOnUse" x1="340.1591" y1="401.1086" x2="340.1591" y2="428.8285">
		<stop  offset="0" style="stop-color:#FFFFFF"/>
		<stop  offset="1" style="stop-color:#000000"/>
	</linearGradient>
	<path class="st18" d="M358.76,399.69h-37.2c-1.47,0-2.66,1.19-2.66,2.66v18.77c6.38,2.44,13.57,3.82,21.17,3.82
		c7.68,0,14.92-1.41,21.35-3.89v-18.7C361.42,400.88,360.23,399.69,358.76,399.69z"/>
	<linearGradient id="SVGID_14_" gradientUnits="userSpaceOnUse" x1="340.1591" y1="449.2977" x2="340.1591" y2="477.0175">
		<stop  offset="0" style="stop-color:#FFFFFF"/>
		<stop  offset="1" style="stop-color:#000000"/>
	</linearGradient>
	<path class="st19" d="M358.76,447.88h-37.2c-1.47,0-2.66,1.19-2.66,2.66v18.77c6.38,2.44,13.57,3.82,21.17,3.82
		c7.68,0,14.92-1.41,21.35-3.89v-18.7C361.42,449.07,360.23,447.88,358.76,447.88z"/>
	<linearGradient id="SVGID_15_" gradientUnits="userSpaceOnUse" x1="340.1591" y1="497.4867" x2="340.1591" y2="525.2065">
		<stop  offset="0" style="stop-color:#FFFFFF"/>
		<stop  offset="1" style="stop-color:#000000"/>
	</linearGradient>
	<path class="st20" d="M358.76,496.06h-37.2c-1.47,0-2.66,1.19-2.66,2.66v18.77c6.38,2.44,13.57,3.82,21.17,3.82
		c7.68,0,14.92-1.41,21.35-3.89v-18.7C361.42,497.25,360.23,496.06,358.76,496.06z"/>
	<linearGradient id="SVGID_16_" gradientUnits="userSpaceOnUse" x1="340.1591" y1="545.6755" x2="340.1591" y2="573.3954">
		<stop  offset="0" style="stop-color:#FFFFFF"/>
		<stop  offset="1" style="stop-color:#000000"/>
	</linearGradient>
	<path class="st21" d="M358.76,544.25h-37.2c-1.47,0-2.66,1.19-2.66,2.66v18.77c6.38,2.44,13.57,3.82,21.17,3.82
		c7.68,0,14.92-1.41,21.35-3.89v-18.7C361.42,545.44,360.23,544.25,358.76,544.25z"/>
	<linearGradient id="SVGID_17_" gradientUnits="userSpaceOnUse" x1="388.3481" y1="401.1086" x2="388.3481" y2="428.8285">
		<stop  offset="0" style="stop-color:#FFFFFF"/>
		<stop  offset="1" style="stop-color:#000000"/>
	</linearGradient>
	<path class="st22" d="M406.95,399.69h-37.2c-1.47,0-2.66,1.19-2.66,2.66v18.77c6.38,2.44,13.57,3.82,21.17,3.82
		c7.68,0,14.92-1.41,21.35-3.89v-18.7C409.61,400.88,408.42,399.69,406.95,399.69z"/>
	<linearGradient id="SVGID_18_" gradientUnits="userSpaceOnUse" x1="388.3481" y1="449.2977" x2="388.3481" y2="477.0175">
		<stop  offset="0" style="stop-color:#FFFFFF"/>
		<stop  offset="1" style="stop-color:#000000"/>
	</linearGradient>
	<path class="st23" d="M406.95,447.88h-37.2c-1.47,0-2.66,1.19-2.66,2.66v18.77c6.38,2.44,13.57,3.82,21.17,3.82
		c7.68,0,14.92-1.41,21.35-3.89v-18.7C409.61,449.07,408.42,447.88,406.95,447.88z"/>
	<linearGradient id="SVGID_19_" gradientUnits="userSpaceOnUse" x1="388.3481" y1="497.4867" x2="388.3481" y2="525.2065">
		<stop  offset="0" style="stop-color:#FFFFFF"/>
		<stop  offset="1" style="stop-color:#000000"/>
	</linearGradient>
	<path class="st24" d="M406.95,496.06h-37.2c-1.47,0-2.66,1.19-2.66,2.66v18.77c6.38,2.44,13.57,3.82,21.17,3.82
		c7.68,0,14.92-1.41,21.35-3.89v-18.7C409.61,497.25,408.42,496.06,406.95,496.06z"/>
	<linearGradient id="SVGID_20_" gradientUnits="userSpaceOnUse" x1="388.3481" y1="545.6755" x2="388.3481" y2="573.3954">
		<stop  offset="0" style="stop-color:#FFFFFF"/>
		<stop  offset="1" style="stop-color:#000000"/>
	</linearGradient>
	<path class="st25" d="M406.95,544.25h-37.2c-1.47,0-2.66,1.19-2.66,2.66v18.77c6.38,2.44,13.57,3.82,21.17,3.82
		c7.68,0,14.92-1.41,21.35-3.89v-18.7C409.61,545.44,408.42,544.25,406.95,544.25z"/>
</g>
</svg>
